<svg width="29" height="23" viewBox="0 0 29 23" fill="none" xmlns="http://www.w3.org/2000/svg">
<path fill-rule="evenodd" clip-rule="evenodd" d="M24.894 0.5H3.81172C1.92979 0.5 0.399994 2.05628 0.399994 3.9708V18.6292C0.399994 20.5437 1.92979 22.1 3.81172 22.1H24.8882C26.7702 22.1 28.3 20.5437 28.3 18.6292V3.97667C28.3057 2.06215 26.7759 0.5 24.894 0.5ZM26.7471 18.6292C26.7471 19.6687 25.9158 20.5144 24.894 20.5144H3.81172C2.78994 20.5144 1.95865 19.6687 1.95865 18.6292V3.97667C1.95865 2.93719 2.78994 2.09152 3.81172 2.09152H24.8882C25.91 2.09152 26.7413 2.93719 26.7413 3.97667V18.6292H26.7471ZM24.819 4.89282L17.9955 11.1179L24.8478 17.7365C25.1596 18.0361 25.1711 18.5411 24.8767 18.8582C24.7208 19.0227 24.5188 19.1049 24.311 19.1049C24.1204 19.1049 23.9242 19.0344 23.7741 18.8876L16.8352 12.1809L14.8897 13.9545C14.7454 14.0896 14.5549 14.16 14.3702 14.16C14.1855 14.16 14.0007 14.0954 13.8506 13.9604L11.9571 12.2396L4.97783 18.8817C4.82774 19.0227 4.63723 19.0931 4.44673 19.0931C4.23891 19.0931 4.03109 19.0051 3.87522 18.8406C3.58081 18.5176 3.59813 18.0184 3.90986 17.7189L10.7853 11.1708L3.881 4.89282C3.55772 4.59918 3.52885 4.1 3.81749 3.77113C4.10613 3.44225 4.59682 3.41289 4.9201 3.70653L12.3901 10.5072C12.4363 10.5424 12.4767 10.5777 12.5171 10.6188C12.5171 10.6246 12.5229 10.6305 12.5287 10.6364L14.3644 12.3042L23.7741 3.7124C24.0974 3.41876 24.588 3.44812 24.8767 3.77113C25.1653 4.1 25.1365 4.59918 24.819 4.89282Z" fill="#B8B8B8"/>
</svg>
