<svg width="36" height="34" viewBox="0 0 36 34" fill="none" xmlns="http://www.w3.org/2000/svg">
<path fill-rule="evenodd" clip-rule="evenodd" d="M30.7811 15.2182C30.7811 14.4425 31.417 13.8136 32.2014 13.8136C32.9859 13.8136 33.6217 14.4425 33.6217 15.2183V16.6337C33.6191 21.0752 31.8681 25.2491 28.6911 28.3874C25.5166 31.5231 21.2975 33.25 16.8111 33.25H16.8012C12.3109 33.2474 8.09035 31.5157 4.91695 28.3739C1.74355 25.2321 -0.00253538 21.0562 5.53248e-06 16.6155C0.00261512 12.1748 1.75365 8.00082 4.93062 4.86265C8.10511 1.72692 12.3243 0 16.8106 0H16.8205C19.19 0.00129037 21.4887 0.485518 23.653 1.43924C24.3695 1.75504 24.6915 2.58535 24.3723 3.2939C24.0529 4.00245 23.2135 4.32103 22.4969 4.00523C20.6983 3.21274 18.7879 2.81029 16.8189 2.8092H16.8107C13.0822 2.8092 9.57637 4.24409 6.93815 6.85009C4.29793 9.45813 2.84274 12.9268 2.84061 16.617C2.83622 24.2351 9.09964 30.4363 16.8029 30.4407H16.8111C20.5397 30.4407 24.0454 29.0058 26.6837 26.3998C29.3238 23.7919 30.779 20.3232 30.7811 16.6329V15.2182ZM32.7189 1.92474C33.2751 1.37357 34.1767 1.37357 34.7329 1.92474C35.289 2.47598 35.289 3.36969 34.7329 3.92093L17.7584 20.7456C17.4803 21.0213 17.1159 21.1591 16.7514 21.1591C16.387 21.1591 16.0224 21.0213 15.7444 20.7456L11.1149 16.1571C10.5588 15.6058 10.5588 14.7121 11.1149 14.1609C11.671 13.6096 12.5728 13.6096 13.1288 14.1609L16.7513 17.7513L32.7189 1.92474Z" fill="#00CED1"/>
</svg>