<svg width="23" height="30" viewBox="0 0 23 30" fill="none" xmlns="http://www.w3.org/2000/svg">
<path fill-rule="evenodd" clip-rule="evenodd" d="M20.8746 13.3508H20.4325V9.59866C20.4325 4.74895 16.3161 0.799988 11.2469 0.799988C6.18392 0.799988 2.00686 4.74349 2.06131 9.59866C2.06274 9.72681 2.06613 10.0038 2.07044 10.3559C2.08177 11.2814 2.09945 12.726 2.10471 13.3508H1.62538C0.728619 13.3508 0 14.0487 0 14.9077V24.9352C0 27.5062 2.18586 29.6 4.86991 29.6H17.6301C20.3141 29.6 22.5 27.5062 22.5 24.9352V14.9077C22.5 14.0487 21.7714 13.3508 20.8746 13.3508ZM18.751 13.3508H3.72349C3.72562 12.8878 3.72882 12.3088 3.73205 11.7245C3.73641 10.9343 3.74083 10.1344 3.74273 9.59866C3.75679 5.63781 7.10559 2.41059 11.2469 2.41059C15.382 2.41059 18.751 5.6318 18.751 9.59866V13.3508ZM20.8186 24.9352C20.8186 26.6174 19.3925 27.9894 17.6301 27.9894H4.87614C3.11998 27.9894 1.68766 26.6234 1.68766 24.9352V14.9614H20.8186V24.9352ZM11.2531 24.6071C12.9906 24.6071 14.398 23.253 14.398 21.5947C14.398 19.9304 12.9844 18.5823 11.2531 18.5823C9.51564 18.5823 8.10822 19.9364 8.10822 21.5947C8.10822 23.253 9.51564 24.6071 11.2531 24.6071ZM11.2531 20.1869C12.0627 20.1869 12.7166 20.8192 12.7166 21.5887C12.7166 22.3582 12.0627 22.9965 11.2531 22.9965C10.4435 22.9965 9.78965 22.3642 9.78965 21.5947C9.78965 20.8252 10.4435 20.1869 11.2531 20.1869Z" fill="#B8B8B8"/>
</svg>